<?xml version="1.0" encoding="UTF-8"?>
<svg width="370px" height="199px" viewBox="0 0 370 199" version="1.1" xmlns="http://www.w3.org/2000/svg" xmlns:xlink="http://www.w3.org/1999/xlink">
    <!-- Generator: Sketch 54.1 (76490) - https://sketchapp.com -->
    <title>网络中断</title>
    <desc>Created with Sketch.</desc>
    <defs>
        <linearGradient x1="-47.0190124%" y1="-185.963888%" x2="68.8688465%" y2="100%" id="linearGradient-1">
            <stop stop-color="#D2D2D2" offset="0%"></stop>
            <stop stop-color="#D2D2D2" stop-opacity="0" offset="100%"></stop>
        </linearGradient>
        <linearGradient x1="118.999979%" y1="-110.864112%" x2="54.5018665%" y2="55.5871768%" id="linearGradient-2">
            <stop stop-color="#D2D2D2" offset="0%"></stop>
            <stop stop-color="#D2D2D2" stop-opacity="0" offset="100%"></stop>
        </linearGradient>
        <linearGradient x1="50%" y1="-221.156912%" x2="50%" y2="100%" id="linearGradient-3">
            <stop stop-color="#D2D2D2" offset="0%"></stop>
            <stop stop-color="#D2D2D2" stop-opacity="0" offset="100%"></stop>
        </linearGradient>
        <linearGradient x1="100.080959%" y1="-97.780461%" x2="38.826306%" y2="104.736078%" id="linearGradient-4">
            <stop stop-color="#D2D2D2" offset="0%"></stop>
            <stop stop-color="#D2D2D2" stop-opacity="0" offset="100%"></stop>
        </linearGradient>
        <linearGradient x1="50%" y1="-230.116303%" x2="50%" y2="100%" id="linearGradient-5">
            <stop stop-color="#D2D2D2" offset="0%"></stop>
            <stop stop-color="#D2D2D2" stop-opacity="0" offset="100%"></stop>
        </linearGradient>
        <linearGradient x1="50%" y1="-169.203289%" x2="50%" y2="100%" id="linearGradient-6">
            <stop stop-color="#D2D2D2" offset="0%"></stop>
            <stop stop-color="#D2D2D2" stop-opacity="0" offset="100%"></stop>
        </linearGradient>
        <linearGradient x1="50%" y1="0%" x2="50%" y2="100%" id="linearGradient-7">
            <stop stop-color="#E9E9E9" offset="0%"></stop>
            <stop stop-color="#CCCCCC" offset="100%"></stop>
        </linearGradient>
        <linearGradient x1="50%" y1="0%" x2="50%" y2="100%" id="linearGradient-8">
            <stop stop-color="#F2F2F2" offset="0%"></stop>
            <stop stop-color="#D8D8D8" offset="100%"></stop>
        </linearGradient>
        <linearGradient x1="58.1042334%" y1="-97.789071%" x2="61.4482607%" y2="81.76008%" id="linearGradient-9">
            <stop stop-color="#FFFFFF" offset="0%"></stop>
            <stop stop-color="#478FFC" offset="100%"></stop>
        </linearGradient>
        <linearGradient x1="130.853945%" y1="-48.7183144%" x2="130.853945%" y2="116.960465%" id="linearGradient-10">
            <stop stop-color="#FFFFFF" offset="0%"></stop>
            <stop stop-color="#478FFC" offset="100%"></stop>
        </linearGradient>
    </defs>
    <g id="设计规范" stroke="none" stroke-width="1" fill="none" fill-rule="evenodd">
        <g id="08-缺省页规范" transform="translate(-280.000000, -1156.000000)" fill-rule="nonzero">
            <g id="网络中断" transform="translate(280.000000, 1156.000000)">
                <g id="编组-2备份-7">
                    <path d="M73.2592593,159.554082 C65.345679,155.973835 56.7654321,146.368897 59.1975309,137.331859 C60.4139859,137.020515 61.693852,137.516587 62.382716,138.566427 C62.382716,138.566427 76.1111111,160.010872 72.2592593,140.282477 C70.4444444,131.010872 67.3209877,122.047909 67.0740741,112.467662 C66.6666667,95.0602545 82.6419753,90.233094 87.2345679,109.467662 C87.8395062,112.010872 90.1604938,132.689884 95.4444444,130.319514 C96.1250336,129.961557 96.6773282,129.400632 97.0246914,128.714576 C99.7037037,124.319514 100.506173,117.862724 105.419753,116.368897 C109.728395,115.010872 113.975309,118.751613 116.296296,122.61581 C121,130.467662 127.296296,149.98618 117.666667,156.603464 C108.037037,163.220748 83.7407407,164.270131 73.345679,159.640501 L73.2592593,159.554082 Z" id="路径" fill="url(#linearGradient-1)"></path>
                    <path d="M273.185185,180.430625 C269.703704,172.467662 269.790123,159.591119 277.691358,154.504699 C278.808047,155.104911 279.411159,156.355993 279.185185,157.603464 C279.185185,157.603464 274.975309,182.726921 285.358025,165.504699 C290.296296,157.393588 294,148.665193 300.17284,141.393588 C311.518519,128.134329 326.641975,135.331859 317.148148,152.677538 C315.91358,154.973835 303.740741,171.862724 309.246914,173.665193 C309.992355,173.848515 310.775891,173.801158 311.493827,173.52939 C316.432099,172.0726 321.37037,167.825687 326.037037,169.973835 C330.135802,171.862724 330.777778,177.467662 329.91358,181.899761 C328.135802,190.875069 319.421721,200.91212 307.841474,199.356564 C296.014314,197.751626 277.777778,190.924452 273.222222,180.517045 L273.185185,180.430625 Z" id="路径" fill="url(#linearGradient-2)"></path>
                    <path d="M370.518519,199.356551 C323.962963,167.418279 258.17284,147.504699 185.259259,147.504699 C112.345679,147.504699 46.5555556,167.418279 0,199.356551 L370.518519,199.356551 Z" id="路径" fill="url(#linearGradient-3)"></path>
                    <path d="M293.469136,103.060255 C290.518519,106.763958 288.62963,112.010872 290.395062,116.70223 C291.617284,119.936798 295.296296,119.961489 295.037037,124.455316 C294.783185,126.699169 294.014206,128.854 292.790123,130.751613 C290.704251,134.400024 288.14732,137.758071 285.185185,140.739267 C287.654305,142.665262 288.910389,145.760781 288.481481,148.862724 C287.997231,151.941616 286.539107,154.784309 284.320988,156.973835 C283.667879,157.772484 282.816415,158.385539 281.851852,158.751613 C280.917648,158.967389 279.94655,158.967389 279.012346,158.751613 C274.419062,157.972041 269.959209,156.546384 265.765432,154.517045 C263.148148,153.270131 260.481481,151.566427 259.592593,148.850378 C258.574074,145.733094 260.19348,144.742546 261.961179,143.765863 L262.41743,143.513691 C263.3302,143.004636 264.22575,142.451348 264.765432,141.566427 C266.061728,139.442971 266.098765,136.603464 266.555556,134.233094 C267.222222,130.739267 266.234568,124.368897 270.604938,122.998526 C272.296296,122.467662 274.135802,122.591119 275.82716,122.047909 C279.501372,120.878499 281.022443,117.422242 282.495104,113.927564 L282.762795,113.292245 C283.611763,111.282231 284.486968,109.304653 285.790123,107.78865 C287.641975,105.628156 292.234568,104.566427 293.469136,103.060255 Z M282.802469,123.78865 C282.802469,123.78865 269.506173,139.294822 269.938272,153.628156 L274.234568,153.628156 C274.234568,153.628156 275.790123,136.344205 282.802469,123.78865 Z" id="形状结合" fill="url(#linearGradient-4)"></path>
                    <path d="M104.135802,22.0108718 L104.135802,22.0108718 C104.204481,17.2252075 100.786222,13.0986863 96.0713857,12.2755097 C91.3565496,11.4523331 86.7422233,14.1764226 85.1851852,18.7022298 C82.2145965,18.6439999 79.4492011,20.2121758 77.9742152,22.7913626 C76.4992294,25.3705494 76.5499916,28.54923 78.1065814,31.0800038 C79.6631712,33.6107776 82.4772299,35.0898519 85.4444444,34.9367977 L103.333333,34.9367977 C106.729866,34.891492 109.517593,32.2362321 109.72807,28.8459242 C109.938548,25.4556163 107.50065,22.4759385 104.135802,22.0108718 L104.135802,22.0108718 Z" id="路径" fill="url(#linearGradient-5)"></path>
                    <path d="M178.074074,12.2084027 L178.074074,12.1466743 C178.066799,6.23154854 173.804253,1.17965438 167.974706,0.177082054 C162.14516,-0.825490268 156.439779,2.51210807 154.45679,8.08494589 C148.848713,8.17358419 144.374325,12.7916841 144.462963,18.3997607 C144.551601,24.0078373 149.169701,28.4822262 154.777778,28.3935879 L177,28.3935879 C181.281476,28.4012178 184.829217,25.075029 185.097306,20.8019475 C185.365395,16.528866 182.261202,12.7853409 178.012346,12.2577854 L178.074074,12.2084027 Z" id="路径" fill="url(#linearGradient-6)"></path>
                </g>
                <g id="网络缺省页" transform="translate(122.000000, 60.000000)">
                    <path d="M66.3021583,103.081573 C69.2784292,99.7826647 75.7422791,99.807976 78.7338129,103.115322 L78.7338129,103.115322 L72.5065384,110 L66.3021583,103.081573 Z M65.2661871,77.6947368 L65.1699054,78.1115789 L61.6556268,97.1340081 C61.0914011,97.5670341 60.5554138,98.0355979 60.0509333,98.5368421 L60.0509333,98.5368421 L47.6546763,85.7109312 C52.4848036,80.9012146 59.0399764,78.937247 65.2661871,77.6947368 L65.2661871,77.6947368 Z M77.6844034,76.6526316 C84.0926429,77.8558871 91.3902538,79.3766685 96.3453237,84.5907759 L96.3453237,84.5907759 L83.520904,98.5368421 C79.8919506,94.7181769 74.1745622,91.99414 69.4100719,92.4871405 L69.4100719,92.4871405 L75.8580155,80.8306023 L77.6844034,76.6526316 Z M72.5179856,44.3473684 L70.0369781,60.7670942 C57.9309728,61.579854 46.5291827,66.8561452 37.9610956,75.6105263 L37.9610956,75.6105263 L24.8633094,62.039623 C34.1993083,52.516182 46.8943336,47.9432884 58.8966101,45.2258238 L58.8966101,45.2258238 L58.4696835,47.064833 L65.6629941,47.064833 L72.5179856,44.3473684 Z M92.9022967,46.4315789 C102.743109,49.5481027 113.407989,53.7061384 121.208633,61.5174769 L121.208633,61.5174769 L108.063548,74.5684211 C101.679021,68.1671292 93.0943125,62.9916167 84.9496403,60.7723954 L84.9496403,60.7723954 L92.9022967,46.4315789 Z M94.0499127,13.0842105 C111.880034,17.0914746 130.120506,24.7132908 144,38.5383518 L144,38.5383518 L130.868791,51.6421053 C121.599703,42.4093689 109.989204,34.458957 98.3787057,30.4516929 L98.3787057,30.4516929 L102.160365,24.3045499 L93.4947329,24.9296831 L89.0935252,25.0098284 L94.0499127,13.0842105 Z M65.2661871,11 L61.1985381,28.0293054 C42.8713751,30.2745172 25.8264079,38.588109 12.7863229,51.6421053 L12.7863229,51.6421053 L0,38.7623963 C17.8688863,20.8872115 41.9151648,12.4443788 65.2661871,11 L65.2661871,11 Z" id="形状结合" fill="url(#linearGradient-7)"></path>
                    <path d="M66.2962963,102.107075 C69.1602483,98.8531972 73.8027147,98.8531972 76.6666667,102.107075 L76.6666667,102.107075 L71.4814815,108 L66.2962963,102.107075 Z M66.2962963,75.7083333 L66.2101214,76.1245198 L62.7709579,95.1410392 C62.22005,95.5733841 61.6967139,96.0412108 61.2041409,96.5416667 L61.2041409,96.5416667 L49.7037037,84.792403 C54.2318758,80.1523323 60.00687,76.9906534 66.2962963,75.7083333 L66.2962963,75.7083333 Z M77.8952583,74.6666667 C84.5048514,75.9097953 90.5923429,79.2642048 95.3333333,84.2756239 L95.3333333,84.2756239 L83.6973815,96.5416667 C80.2178066,92.8578109 75.3520635,91.01718 70.4444444,91.5282977 L70.4444444,91.5282977 L76.0721868,78.8444742 L77.8952583,74.6666667 Z M57.7764913,42.375 L57.346944,44.2033347 L71.4814815,44.2033347 L68.9852444,57.8260605 C56.8049265,58.6341026 45.3331466,63.8797674 36.7124645,72.5833333 L36.7124645,72.5833333 L24.8148148,60.6012114 C33.84842,51.4805246 45.2865008,45.1558197 57.7764913,42.375 L57.7764913,42.375 Z M93.1219001,44.4583333 C103.35159,47.6734363 112.648227,53.2909978 120.222222,60.8339025 L120.222222,60.8339025 L108.398094,72.5833333 C102.2052,66.3996965 94.4799245,61.9441886 86,59.6653624 L86,59.6653624 L93.1219001,44.4583333 Z M94.2030262,10.0833333 C112.314459,14.2361189 128.890099,23.5211295 142,36.8572865 L142,36.8572865 L130.396567,48.625 C121.610273,39.6923706 110.928968,32.9121003 99.1668925,28.8010521 L99.1668925,28.8010521 L101.988708,22.6045653 L93.2940379,22.6045653 L90.1481481,22.5644845 L94.2030262,10.0833333 Z M66.2962963,8 L62.223264,25.0221382 C43.8718458,27.266405 26.8043203,35.5764979 13.7469773,48.625 L13.7469773,48.625 L2,36.9153004 C19.1602584,19.7584796 42.0366207,9.47053259 66.2962963,8 L66.2962963,8 Z" id="形状结合" fill="url(#linearGradient-8)"></path>
                    <polygon id="路径" fill="url(#linearGradient-9)" points="74.8398957 0.890922478 93.0599739 0 83.8933507 28.4042285 95 27.3108236 70.5637549 77 79.5121252 38.9495109 64 38.0504891"></polygon>
                    <polygon id="路径" fill="url(#linearGradient-10)" points="72.9928077 0 90.9704011 0 81.9775934 27.4738746 93 27.4738746 70.6744122 76 77.6295989 37.9959562 64 37.9959562"></polygon>
                </g>
            </g>
        </g>
    </g>
</svg>